<svg width="316" height="170" viewBox="0 0 316 170" fill="none" xmlns="http://www.w3.org/2000/svg">
<g filter="url(#filter0_g_2165_427)">
<ellipse cx="158" cy="84.576" rx="153.097" ry="79.6729" fill="#7B573D"/>
</g>
<g filter="url(#filter1_g_2165_427)">
<path d="M158 1.9012C201.25 1.9012 240.356 11.2825 268.614 26.4011C296.914 41.5423 314.099 62.2909 314.099 84.9537C314.099 107.617 296.914 128.365 268.614 143.506C240.356 158.625 201.25 168.006 158 168.006C114.75 168.006 75.6435 158.625 47.3861 143.506C19.0863 128.365 1.90123 107.617 1.90123 84.9537C1.90123 62.2909 19.0863 41.5423 47.3861 26.4011C75.6435 11.2825 114.75 1.9012 158 1.9012Z" stroke="#7F5C3E" stroke-width="2"/>
</g>
<g filter="url(#filter2_g_2165_427)">
<path d="M21.9098 101.965V69.0159H30.6751C33.9415 69.0159 36.0766 69.1733 37.0805 69.4879C38.6837 69.9973 40.0023 71.0836 41.0361 72.7468C42.085 74.41 42.6094 76.5526 42.6094 79.1747C42.6094 81.5571 42.1599 83.5574 41.2609 85.1756C40.3619 86.7788 39.2381 87.91 37.8896 88.5693C36.5411 89.2136 34.2187 89.5357 30.9223 89.5357H27.3488V101.965H21.9098ZM27.3488 74.5898V83.9394H30.3604C32.3832 83.9394 33.7542 83.7971 34.4734 83.5124C35.2076 83.2277 35.8069 82.7183 36.2714 81.9841C36.7359 81.2349 36.9681 80.3209 36.9681 79.2421C36.9681 78.1483 36.7284 77.2269 36.2489 76.4777C35.7695 75.7285 35.1776 75.2266 34.4734 74.9718C33.7692 74.7171 32.2783 74.5898 30.0008 74.5898H27.3488ZM66.8169 101.965H60.8835L58.5236 94.4803H47.7355L45.5105 101.965H39.7119L50.2303 69.0159H56.0064L66.8169 101.965ZM56.7706 88.9289L53.0622 76.7024L49.3987 88.9289H56.7706ZM77.6068 69.0159H83.0683V89.8729C83.0683 93.2442 82.7312 95.7539 82.0569 97.4021C81.3826 99.0502 80.3713 100.316 79.0228 101.2C77.6892 102.084 76.0411 102.526 74.0782 102.526C71.4861 102.526 69.4558 101.635 67.9875 99.8518C66.5191 98.0688 65.7774 95.3793 65.7624 91.7833L70.9092 91.0641C70.9692 92.9969 71.2164 94.3679 71.6509 95.177C72.2353 96.2858 73.1118 96.8402 74.2805 96.8402C75.4192 96.8402 76.2583 96.4431 76.7977 95.649C77.3371 94.8399 77.6068 93.0569 77.6068 90.2999V69.0159ZM111.366 101.965H105.433L103.073 94.4803H92.2849L90.0599 101.965H84.2613L94.7796 69.0159H100.556L111.366 101.965ZM101.32 88.9289L97.6115 76.7024L93.9481 88.9289H101.32ZM112.335 101.965V69.0159H120.493L125.393 91.4911L130.247 69.0159H138.428V101.965H133.371V76.0282L128 101.965H122.741L117.414 76.0282V101.965H112.335ZM166.389 101.965H160.456L158.096 94.4803H147.308L145.083 101.965H139.284L149.802 69.0159H155.579L166.389 101.965ZM156.343 88.9289L152.634 76.7024L148.971 88.9289H156.343ZM180.011 89.8504V84.299H191.765V97.4245C190.582 98.818 188.904 100.017 186.731 101.021C184.558 102.024 182.378 102.526 180.191 102.526C177.524 102.526 175.171 101.875 173.133 100.571C171.096 99.2525 169.477 97.2897 168.279 94.6826C167.095 92.0605 166.503 88.9814 166.503 85.4453C166.503 81.8193 167.103 78.7177 168.301 76.1406C169.515 73.5634 171.081 71.638 172.999 70.3644C174.931 69.0908 177.239 68.4541 179.921 68.4541C183.142 68.4541 185.72 69.2781 187.652 70.9263C189.6 72.5595 190.851 74.9644 191.406 78.1408L186.012 79.377C185.607 77.6838 184.865 76.3878 183.787 75.4888C182.708 74.5898 181.419 74.1403 179.921 74.1403C177.599 74.1403 175.718 75.0468 174.28 76.8598C172.841 78.6578 172.122 81.4072 172.122 85.1081C172.122 89.0788 172.901 92.0979 174.459 94.1656C175.793 95.9487 177.599 96.8402 179.876 96.8402C180.94 96.8402 182.041 96.5929 183.18 96.0985C184.334 95.5891 185.36 94.8998 186.259 94.0308V89.8504H180.011ZM195.004 101.965V69.0159H206.488C209.425 69.0159 211.523 69.3156 212.781 69.9149C214.04 70.4993 215.074 71.5257 215.883 72.994C216.692 74.4474 217.097 76.193 217.097 78.2307C217.097 80.8079 216.475 82.8831 215.231 84.4564C214.003 86.0296 212.25 87.0185 209.972 87.4231C211.141 88.2622 212.107 89.1836 212.871 90.1875C213.635 91.1764 214.677 92.9595 215.995 95.5366L219.277 101.965H212.781L208.826 94.7949C207.402 92.2028 206.436 90.5846 205.926 89.9403C205.417 89.281 204.878 88.8315 204.308 88.5918C203.739 88.3371 202.825 88.2097 201.566 88.2097H200.443V101.965H195.004ZM200.443 82.9505H204.488C206.96 82.9505 208.534 82.8456 209.208 82.6359C209.882 82.4111 210.429 81.9691 210.849 81.3098C211.268 80.6506 211.478 79.774 211.478 78.6802C211.478 77.6314 211.268 76.7923 210.849 76.163C210.429 75.5187 209.86 75.0767 209.14 74.837C208.631 74.6722 207.155 74.5898 204.713 74.5898H200.443V82.9505ZM244.743 101.965H238.809L236.45 94.4803H225.661L223.436 101.965H217.638L228.156 69.0159H233.932L244.743 101.965ZM234.696 88.9289L230.988 76.7024L227.325 88.9289H234.696ZM245.711 101.965V69.0159H253.87L258.769 91.4911L263.624 69.0159H271.805V101.965H266.748V76.0282L261.376 101.965H256.117L250.791 76.0282V101.965H245.711ZM274.032 91.2439L279.358 90.6146C279.958 94.8249 281.92 96.9301 285.247 96.9301C286.895 96.9301 288.191 96.503 289.135 95.649C290.079 94.78 290.551 93.7086 290.551 92.435C290.551 91.6859 290.386 91.0491 290.056 90.5247C289.727 90.0002 289.225 89.5732 288.551 89.2436C287.876 88.899 286.243 88.3296 283.651 87.5355C281.329 86.8312 279.628 86.0671 278.549 85.243C277.47 84.4189 276.609 83.3401 275.964 82.0066C275.335 80.6581 275.021 79.2122 275.021 77.6689C275.021 75.8709 275.425 74.2526 276.234 72.8142C277.058 71.3758 278.19 70.2895 279.628 69.5553C281.066 68.8211 282.842 68.4541 284.955 68.4541C288.131 68.4541 290.611 69.3156 292.394 71.0387C294.177 72.7618 295.121 75.2266 295.226 78.433L289.764 78.7252C289.525 76.9572 289.008 75.721 288.213 75.0168C287.419 74.3126 286.288 73.9605 284.82 73.9605C283.351 73.9605 282.22 74.2676 281.426 74.8819C280.632 75.4963 280.235 76.2604 280.235 77.1744C280.235 78.0734 280.594 78.8301 281.314 79.4444C282.033 80.0587 283.688 80.733 286.281 81.4672C289.023 82.2613 291 83.1004 292.214 83.9844C293.443 84.8534 294.379 85.9847 295.023 87.3781C295.668 88.7566 295.99 90.4348 295.99 92.4126C295.99 95.2744 295.106 97.6792 293.338 99.6271C291.585 101.575 288.835 102.549 285.089 102.549C278.467 102.549 274.781 98.7805 274.032 91.2439Z" fill="#F8BD04"/>
</g>
<defs>
<filter id="filter0_g_2165_427" x="3.9658" y="3.96577" width="308.068" height="161.22" filterUnits="userSpaceOnUse" color-interpolation-filters="sRGB">
<feFlood flood-opacity="0" result="BackgroundImageFix"/>
<feBlend mode="normal" in="SourceGraphic" in2="BackgroundImageFix" result="shape"/>
<feTurbulence type="fractalNoise" baseFrequency="6.4052290916442871 6.4052290916442871" numOctaves="3" seed="1459" />
<feDisplacementMap in="shape" scale="1.8734691143035889" xChannelSelector="R" yChannelSelector="G" result="displacedImage" width="100%" height="100%" />
<feMerge result="effect1_texture_2165_427">
<feMergeNode in="displacedImage"/>
</feMerge>
</filter>
<filter id="filter1_g_2165_427" x="2.44534e-05" y="-6.08352e-06" width="316" height="169.908" filterUnits="userSpaceOnUse" color-interpolation-filters="sRGB">
<feFlood flood-opacity="0" result="BackgroundImageFix"/>
<feBlend mode="normal" in="SourceGraphic" in2="BackgroundImageFix" result="shape"/>
<feTurbulence type="fractalNoise" baseFrequency="6.6666665077209473 6.6666665077209473" numOctaves="3" seed="1459" />
<feDisplacementMap in="shape" scale="1.7999999523162842" xChannelSelector="R" yChannelSelector="G" result="displacedImage" width="100%" height="100%" />
<feMerge result="effect1_texture_2165_427">
<feMergeNode in="displacedImage"/>
</feMerge>
</filter>
<filter id="filter2_g_2165_427" x="20.9092" y="67.4534" width="276.081" height="36.0961" filterUnits="userSpaceOnUse" color-interpolation-filters="sRGB">
<feFlood flood-opacity="0" result="BackgroundImageFix"/>
<feBlend mode="normal" in="SourceGraphic" in2="BackgroundImageFix" result="shape"/>
<feTurbulence type="fractalNoise" baseFrequency="6.6666665077209473 6.6666665077209473" numOctaves="3" seed="9313" />
<feDisplacementMap in="shape" scale="2" xChannelSelector="R" yChannelSelector="G" result="displacedImage" width="100%" height="100%" />
<feMerge result="effect1_texture_2165_427">
<feMergeNode in="displacedImage"/>
</feMerge>
</filter>
</defs>
</svg>
